<svg width="221" height="72" viewBox="0 0 221 72" fill="none" xmlns="http://www.w3.org/2000/svg">
<path d="M139.981 20.9257C139.96 21.0614 139.947 21.1981 139.94 21.3351C139.959 26.0246 139.963 30.714 140.022 35.4071C140.088 36.1141 140.242 36.8109 140.48 37.4824C140.648 38.1 140.887 38.6961 141.106 39.346H130.175C130.41 38.6709 130.604 38.0138 130.868 37.3783C131.208 36.4969 131.368 35.5605 131.338 34.6207C131.32 26.9151 131.32 19.2095 131.338 11.5038C131.362 10.6016 131.207 9.70314 130.879 8.85744C130.622 8.21111 130.417 7.5432 130.175 6.83942C130.41 6.83942 130.581 6.81785 130.753 6.81785C133.86 6.81785 136.967 6.81785 140.067 6.81785C140.228 6.80316 140.389 6.83631 140.53 6.91271C140.67 6.9891 140.783 7.10504 140.853 7.24513C143.585 11.6904 146.317 16.131 149.05 20.5667C149.228 20.9205 149.371 21.2895 149.478 21.669C149.553 21.8664 149.612 22.0677 149.675 22.2687L149.828 22.24C149.802 21.6691 149.754 21.1016 149.754 20.5307C149.754 17.554 149.728 14.5773 149.754 11.6006C149.79 10.641 149.628 9.68415 149.277 8.78555C149.027 8.17872 148.845 7.54322 148.614 6.86817H159.507C159.269 7.58631 159.06 8.26847 158.796 8.94352C158.517 9.68621 158.391 10.474 158.423 11.2631C158.576 19.7192 158.699 28.179 158.848 36.6351C158.874 37.1006 158.954 37.5619 159.087 38.0103C159.202 38.4592 159.381 38.8973 159.549 39.3856H155.912C153.997 39.3856 152.082 39.3856 150.163 39.3856C150.032 39.4017 149.899 39.3751 149.785 39.31C149.671 39.245 149.582 39.1453 149.534 39.0265C146.553 33.4897 143.573 27.9575 140.592 22.4302C140.377 21.9404 140.203 21.4349 140.071 20.9185L139.981 20.9257Z" fill="white"/>
<path d="M63.2659 6.81665H63.9775C70.8179 6.81665 77.6594 6.81665 84.5022 6.81665C84.8888 6.83939 85.2677 6.93069 85.6199 7.08595C86.6315 7.45508 87.548 8.03145 88.3057 8.77541C89.0635 9.51936 89.6445 10.4132 90.0088 11.3948C90.1484 11.7187 90.2351 12.0613 90.2658 12.4108C90.2994 13.33 90.1802 14.2673 90.2957 15.1757C90.5341 17.0178 89.3195 18.3284 88.6191 19.8258C88.5446 19.9909 88.2987 20.0914 88.1199 20.2027C87.304 20.7126 86.4806 21.2153 85.5715 21.7754C86.5998 22.3463 87.5536 22.8526 88.4776 23.3984C88.7502 23.5683 88.9845 23.7894 89.1668 24.0483C90.4524 25.7232 91.0291 27.8066 90.78 29.876C90.7055 31.1172 90.698 32.3612 90.7576 33.6032C90.7764 33.7149 90.7764 33.8291 90.7576 33.9408C90.2137 35.3592 89.6772 36.8134 88.4067 37.7865C86.6519 39.1473 84.6289 39.4382 82.3935 39.3951C76.276 39.2802 70.1584 39.3555 64.0371 39.3555H63.292C63.6385 38.3393 63.9775 37.3806 64.2904 36.4147C64.3861 36.1292 64.4364 35.8314 64.4395 35.5314C64.4395 27.2225 64.4395 18.9149 64.4395 10.6085C64.4333 10.3084 64.3818 10.0107 64.2867 9.72498C63.9477 8.78422 63.6124 7.82564 63.2659 6.81665ZM75.9779 32.2926C78.3512 32.2926 78.3847 32.3356 79.5806 31.5313C79.9438 31.292 80.2459 30.9764 80.464 30.6082C80.6821 30.24 80.8107 29.8287 80.8399 29.4056C80.9368 27.8293 79.644 26.6947 78.3102 26.174C78.2163 26.1489 78.1172 26.1489 78.0233 26.174C76.6597 26.4936 75.2887 26.7953 73.9251 27.1579C73.673 27.208 73.4487 27.3451 73.2943 27.5435C73.1399 27.7419 73.066 27.9879 73.0868 28.2352C73.1091 29.2334 73.0868 30.2315 73.0868 31.2298C73.0868 31.9228 73.4594 32.2855 74.2045 32.2891C74.808 32.2963 75.393 32.2926 75.9667 32.2926H75.9779ZM73.0346 16.9962C73.0346 17.7143 73.0346 18.4324 73.0346 19.1506C73.0363 19.2829 73.0683 19.4134 73.1282 19.5324C73.1881 19.6515 73.2744 19.7563 73.3811 19.8396C73.4878 19.9229 73.6122 19.9825 73.7455 20.0142C73.8788 20.046 74.0176 20.049 74.1523 20.0232C75.4227 19.7287 76.7156 19.4989 77.9488 19.1039C78.6986 18.9005 79.3797 18.5104 79.9234 17.9729C81.0411 16.709 80.9964 16.5726 80.0948 15.1291C79.8729 14.7742 79.5623 14.4784 79.1913 14.2689C78.8204 14.0594 78.4008 13.943 77.9711 13.9299C76.7267 13.8652 75.475 13.9119 74.2269 13.9299C74.0636 13.9155 73.8991 13.9359 73.745 13.9896C73.5908 14.0434 73.4509 14.1292 73.335 14.2409C73.2191 14.3526 73.1301 14.4874 73.0743 14.6359C73.0185 14.7844 72.9974 14.943 73.0123 15.1003L73.0346 16.9962Z" fill="white"/>
<path d="M126.166 39.3425H114.3C114.598 38.4628 114.922 37.6189 115.161 36.75C115.273 36.3402 115.298 35.9124 115.231 35.4932C115.071 34.5273 114.837 33.5758 114.632 32.6207C114.442 31.7302 114.062 31.4826 113.168 31.6944L107.136 33.1307C106.833 33.1966 106.557 33.3462 106.341 33.5611C106.125 33.7761 105.979 34.0469 105.921 34.3406C105.531 35.5323 105.621 36.8215 106.171 37.9529C106.356 38.4144 106.514 38.8856 106.644 39.3641H94.7664C94.975 39.0409 95.1203 38.7609 95.3177 38.5167C96.5435 36.9943 97.1136 35.2419 97.5122 33.3676C99.1329 25.7517 100.839 18.1537 102.497 10.545C102.554 10.2349 102.533 9.9162 102.438 9.6151C102.162 8.69588 101.838 7.79463 101.521 6.84668H119.427C119.132 7.7264 118.812 8.56661 118.577 9.42837C118.447 9.85243 118.42 10.2998 118.499 10.7354C120.297 19.0276 122.118 27.3148 123.961 35.5974C124.057 35.9783 124.215 36.3419 124.43 36.6746C124.974 37.5471 125.555 38.409 126.166 39.3425ZM112.773 24.3585C112.728 24.1826 112.72 24.1466 112.713 24.1071C112.055 21.0502 111.394 17.9946 110.731 14.9401C110.705 14.8252 110.552 14.7354 110.459 14.6349C110.373 14.7462 110.239 14.8431 110.209 14.9652C109.464 18.2208 108.738 21.4775 108.03 24.7355C108.018 24.8537 108.033 24.9729 108.074 25.0849C108.115 25.1969 108.181 25.2991 108.266 25.3844C108.352 25.4697 108.456 25.536 108.571 25.579C108.685 25.622 108.808 25.6404 108.931 25.6332C110.016 25.3854 111.1 25.1342 112.165 24.8361C112.419 24.7643 112.609 24.4914 112.773 24.3585Z" fill="white"/>
<path d="M165.383 6.83894H176.299C175.975 7.7833 175.651 8.69893 175.36 9.62892C175.244 9.98469 175.18 10.3546 175.17 10.7277C175.152 12.7636 175.17 14.796 175.17 16.8319C175.17 17.6542 175.658 18.0275 176.463 17.83C177.033 17.6936 177.581 17.5321 178.173 17.428C178.501 17.3697 178.806 17.2305 179.061 17.0241C179.316 16.8176 179.511 16.5509 179.626 16.2502C180.558 14.1783 181.489 12.1065 182.402 10.0274C182.499 9.77027 182.51 9.49057 182.435 9.22672C182.201 8.43318 181.914 7.65411 181.634 6.83543C181.839 6.83543 182.007 6.81019 182.145 6.81019C185.077 6.81019 188.009 6.81019 190.941 6.81019C191.1 6.79118 191.26 6.82944 191.39 6.91766C191.521 7.00589 191.613 7.13783 191.649 7.28778C191.776 7.57886 191.835 7.89359 191.82 8.20912C191.805 8.52465 191.717 8.83307 191.563 9.11188C189.738 13.0868 187.953 17.0833 186.18 21.0797C186.068 21.3655 186.068 21.6807 186.18 21.9665C188.233 26.5662 190.278 31.166 192.402 35.7406C192.944 36.7623 193.546 37.7536 194.205 38.7099L194.6 39.3383H183.05C183.292 38.6381 183.497 37.9416 183.777 37.2773C183.883 37.0384 183.934 36.78 183.926 36.5203C183.918 36.2605 183.852 36.0056 183.732 35.7729C182.219 32.4874 180.751 29.1838 179.261 25.8876C178.851 24.9827 178.639 24.8786 177.652 25.1012C177.138 25.2161 176.623 25.3274 176.109 25.4603C175.85 25.5038 175.616 25.6375 175.452 25.836C175.288 26.0345 175.205 26.2841 175.219 26.5375C175.219 29.5704 175.219 32.6035 175.219 35.6365C175.225 35.9177 175.277 36.1962 175.372 36.4622C175.681 37.4102 176.009 38.3545 176.348 39.3348H165.383C165.517 38.9362 165.614 38.5448 165.756 38.1785C166.323 36.7753 166.583 35.2741 166.519 33.7692C166.478 26.3652 166.49 18.9647 166.519 11.5607C166.547 10.6207 166.386 9.68463 166.046 8.80313C165.815 8.17835 165.618 7.53195 165.383 6.83894Z" fill="white"/>
<path d="M200.266 39.3734C199.838 36.3213 199.413 33.3266 198.977 30.2314C200.039 30.472 201.06 30.63 202.025 30.9496C204.096 31.6175 206.224 31.5887 208.358 31.4738C209.039 31.3978 209.667 31.0851 210.124 30.5942C210.773 29.8761 211.417 28.9926 211.115 27.9441C210.944 27.5014 210.604 27.1382 210.165 26.9281C209.092 26.4275 207.993 25.9816 206.872 25.5923C204.9 24.866 203.009 23.9506 201.227 22.8598C200.974 22.6927 200.757 22.4806 200.587 22.2349C199.279 20.5277 198.699 18.4025 198.966 16.2959C199.092 15.0643 198.988 13.8112 198.988 12.5688C198.973 12.4748 198.973 12.3791 198.988 12.2851C199.502 10.8488 200.069 9.39466 201.35 8.39285C203.105 7.02479 205.124 6.70514 207.364 6.78773C211.134 6.92776 214.908 6.83095 218.682 6.83454H219.405C219.837 9.52039 220.262 12.1487 220.701 14.8812C219.729 14.6945 218.839 14.5868 217.989 14.3535C215.851 13.8098 213.628 13.6418 211.428 13.8578C210.75 13.9081 210.065 14.4288 209.487 14.8633C209.144 15.1182 208.969 15.6102 208.776 16.0159C208.366 16.8741 208.604 17.4845 209.591 17.9082C211.272 18.6264 213.008 19.2151 214.67 19.962C216.063 20.5904 217.605 21.1506 218.671 22.1489C219.655 23.0753 220.09 24.5474 220.768 25.779C220.768 28.49 220.932 31.2153 220.701 33.9119C220.506 35.4209 219.703 36.7956 218.466 37.7397C216.737 39.14 214.699 39.5134 212.423 39.4237C208.597 39.2765 204.763 39.3842 200.933 39.3842L200.266 39.3734Z" fill="white"/>
<path d="M24.1796 71.4386C23.3115 71.4386 22.4322 71.4745 21.5492 71.417C20.6663 71.3596 19.8131 71.1908 18.9413 71.058C18.0695 70.9251 17.2312 70.7312 16.378 70.5373C15.5237 70.3559 14.6793 70.1331 13.8483 69.8694C13.0081 69.6264 12.1832 69.3363 11.3781 69.0005C10.5779 68.6462 9.80261 68.242 9.05705 67.7904C8.33426 67.3272 7.77915 66.6414 7.11598 66.0704C6.46933 65.5084 5.86667 64.9011 5.31282 64.2535C4.71113 63.6387 4.15693 62.9824 3.65482 62.2895C3.18998 61.5713 2.77316 60.8253 2.40677 60.056C2.05368 59.2806 1.74523 58.487 1.48281 57.6789C1.22574 56.9069 1.15117 56.056 0.961162 55.1979C0.78233 54.4043 0.58858 53.5856 0.480536 52.7166C0.368765 51.9087 0.23471 51.0757 0.178825 50.2031C0.130391 49.3881 0.148991 48.5443 0.148991 47.6718C0.148991 46.3396 0.0521194 46.3395 0.0521194 45.0073C0.0521194 43.6752 0.178825 43.6752 0.178825 42.343C0.178825 41.0109 0.0185556 41.0146 0.0185556 39.6825C0.0185556 38.3503 0.0446608 38.3502 0.0446608 37.018C0.0446608 35.6859 0.0633074 35.6859 0.0633074 34.3537C0.0633074 33.0216 0.0633074 33.0181 0.0633074 31.6859C0.0633074 30.3538 0.0446608 30.3537 0.0446608 29.0215C0.0446608 27.6893 0.167637 27.6894 0.167637 26.3572C0.167637 25.0251 0 25.0216 0 23.6894C0 22.8169 0.249547 21.9803 0.297981 21.176C0.353866 20.3034 0.320372 19.456 0.428416 18.6625C0.547638 17.7935 0.547656 16.9317 0.726488 16.149C0.920223 15.2944 1.24066 14.4936 1.49773 13.7216C1.82376 12.9341 2.19696 12.1656 2.61543 11.4199C2.988 10.6263 3.20401 9.78259 3.65109 9.08959C4.14793 8.39218 4.69581 7.7298 5.29044 7.10751C5.85376 6.46669 6.46514 5.86662 7.11971 5.31216C7.77925 4.76065 8.47903 4.25547 9.21359 3.80049C9.92809 3.31577 10.6748 2.8767 11.449 2.48623C12.2499 2.14755 13.071 1.85501 13.9079 1.61012C14.7263 1.32062 15.5594 1.07131 16.4041 0.863228C17.261 0.66933 18.0881 0.328277 18.9525 0.209783C19.8168 0.0912901 20.7185 0.184571 21.5865 0.130711C22.4546 0.0768502 23.3451 0.0625084 24.1945 0.0625084C25.044 0.0625084 25.9381 -0.0379892 26.8025 0.0158713C27.6668 0.0697319 28.5275 0.292391 29.4105 0.410884C30.2934 0.529377 31.1466 0.615505 32.0184 0.809403C32.8761 0.982232 33.7242 1.19677 34.5594 1.45215C35.4005 1.7025 36.2253 2.00115 37.0294 2.34632C37.799 2.7585 38.5395 3.21905 39.2462 3.7251C39.9874 4.17899 40.6935 4.68421 41.3587 5.23677C42.5395 6.48503 43.6704 7.77615 44.749 9.10747C45.2034 9.83211 45.6091 10.5841 45.9636 11.3588C46.2922 12.142 46.5733 12.9429 46.8056 13.7575C47.0968 14.555 47.3455 15.3664 47.5507 16.1884C47.7296 16.982 47.8488 17.8186 47.9681 18.7019C48.0798 19.5098 48.3182 20.3393 48.3741 21.2154C48.4225 22.0305 48.1692 22.8815 48.1692 23.7576C48.1692 25.0898 48.4114 25.0898 48.4114 26.4219C48.4114 27.7541 48.2326 27.7505 48.2326 29.0827C48.2326 30.4148 48.1766 30.4148 48.1766 31.747C48.1766 33.0791 48.2027 33.0791 48.2027 34.4112C48.2027 35.7434 48.3257 35.7434 48.3257 37.0755C48.3257 38.4077 48.2772 38.4077 48.2772 39.7435C48.2772 41.0792 48.3592 41.0756 48.3592 42.4077C48.3592 43.7399 48.1618 43.7399 48.1618 45.072C48.1618 46.4042 48.1841 46.4078 48.1841 47.74C48.1841 48.6125 48.1356 49.4491 48.0835 50.2535C48.0313 51.1296 48.1543 51.9841 48.0426 52.792C47.9271 53.661 47.8488 54.5156 47.67 55.3055C47.4762 56.1637 47.2191 56.9787 46.9583 57.7543C46.6441 58.5449 46.2821 59.3172 45.8742 60.0669C45.5066 60.8304 45.0885 61.5704 44.6224 62.2823C44.1852 63.0119 43.6959 63.7114 43.1582 64.3757C42.0217 65.6582 40.6857 66.7627 39.1978 67.6503C38.491 68.1464 37.7504 68.5963 36.981 68.9968C36.1904 69.3612 35.378 69.6802 34.5482 69.952C33.7338 70.2691 32.903 70.5459 32.0594 70.7815C31.2062 70.9754 30.3232 71.0724 29.4514 71.1909C28.5796 71.3094 27.7078 71.478 26.8434 71.5319C25.9791 71.5857 25.0477 71.4386 24.1796 71.4386ZM24.1796 1.97287C23.2221 1.97287 22.3168 2.06612 21.404 2.12716C20.4502 2.19539 19.5412 2.20979 18.6358 2.34983C17.7167 2.47399 16.8051 2.64545 15.9049 2.86336C15.0167 3.1118 14.1456 3.41403 13.2969 3.76823C12.4576 4.14677 11.6493 4.58598 10.879 5.0823C10.1037 5.56258 9.37319 6.10691 8.69567 6.70899C7.99896 7.29787 7.20546 7.7861 6.6168 8.48629C6.03189 9.18593 5.50723 9.93056 5.04822 10.7126C4.6408 11.5184 4.29351 12.3511 4.00883 13.2045C3.68358 14.038 3.40981 14.8893 3.18911 15.754C2.95767 16.6158 2.77115 17.4881 2.63026 18.3679C2.49613 19.2225 2.2577 20.0951 2.17574 21.0143C2.09377 21.9335 2.12362 22.7773 2.12362 23.7001C2.12362 25.0323 2.17574 25.0323 2.17574 26.3644C2.17574 27.6966 2.13107 27.693 2.13107 29.0252C2.13107 30.3573 2.22795 30.3573 2.22795 31.6895C2.22795 33.0216 2.10124 33.0216 2.10124 34.3537C2.10124 35.6859 2.25769 35.6859 2.25769 37.018C2.25769 38.3502 2.2354 38.3502 2.2354 39.686C2.2354 41.0217 2.21676 41.0181 2.21676 42.3502C2.21676 43.6824 2.21676 43.6824 2.21676 45.0145C2.21676 46.3467 2.21676 46.3503 2.21676 47.6825C2.21676 48.6017 2.11986 49.4994 2.18319 50.3648C2.24653 51.2302 2.51105 52.1601 2.64517 53.0075C2.78675 53.9195 2.74954 54.8387 2.96935 55.679C3.23355 56.5348 3.55201 57.3742 3.92306 58.1925C4.30039 59.0061 4.73871 59.792 5.2345 60.5443C5.65916 61.3325 6.14886 62.0867 6.69876 62.7994C7.23549 63.5331 7.83755 64.2202 8.49819 64.8531C9.18744 65.4384 10.063 65.7976 10.864 66.2715C11.6288 66.7758 12.4335 67.2212 13.2708 67.6037C14.1252 67.9546 15.0026 68.2509 15.8974 68.4907C16.7895 68.7391 17.6949 68.9403 18.6097 69.0938C19.4964 69.2302 20.4278 69.2625 21.3853 69.3271C22.2795 69.3918 23.2072 69.5176 24.1647 69.5176C25.1222 69.5176 26.0499 69.4385 26.944 69.3775C27.9015 69.3092 28.8069 69.0183 29.6787 68.8783C30.625 68.7311 31.5676 68.724 32.4319 68.4942C33.3302 68.2618 34.2125 67.9751 35.0735 67.6359C35.9108 67.2501 36.7167 66.8036 37.484 66.3003C38.2978 65.8703 39.073 65.3754 39.8013 64.8209C40.4803 64.2105 41.1036 63.545 41.6642 62.8316C42.2238 62.1216 42.7222 61.3686 43.1544 60.5802C43.5805 59.7918 43.9466 58.9745 44.2498 58.135C44.6287 57.3178 44.9535 56.4782 45.2222 55.6215C45.442 54.7848 45.5724 53.9015 45.714 52.9894C45.8481 52.1349 46.0679 51.2588 46.135 50.3396C46.202 49.4203 46.0679 48.5766 46.0679 47.6574C46.0679 46.3252 46.0903 46.3251 46.0903 44.9929C46.0903 43.6608 46.1946 43.6608 46.1946 42.3287C46.1946 40.9965 46.1387 41.0002 46.1387 39.6681C46.1387 38.3359 46.1685 38.3358 46.1685 37.0036C46.1685 35.6715 46.0084 35.6715 46.0084 34.3394C46.0084 33.0072 46.2915 33.0037 46.2915 31.6716C46.2915 30.3394 46.0493 30.3394 46.0493 29.0073C46.0493 27.6751 46.2244 27.675 46.2244 26.3428C46.2244 25.0107 46.284 25.0072 46.284 23.6751C46.284 22.7523 46.2244 21.8545 46.1648 20.9927C46.1015 20.0699 45.8779 19.1973 45.7475 18.3392C45.6022 17.4235 45.4718 16.5439 45.252 15.7036C45 14.8486 44.6939 14.0092 44.3355 13.1901C43.9928 12.332 43.7729 11.4379 43.3333 10.6766C42.8679 9.89537 42.337 9.15204 41.7461 8.45402C41.1675 7.74755 40.5268 7.09034 39.8312 6.48983C39.1419 5.90455 38.2663 5.53112 37.4653 5.05355C36.667 4.61058 35.8351 4.22658 34.9766 3.90463C34.128 3.55319 33.2569 3.25447 32.3686 3.01046C31.4899 2.72439 30.5957 2.48466 29.6899 2.29232C28.8069 2.15228 27.8829 2.02313 26.9291 1.9585C26.0685 1.919 25.1371 1.97287 24.1796 1.97287Z" fill="white"/>
<path d="M24.1498 39.2837C23.4569 39.2837 22.7788 38.9463 22.7788 38.2245C22.7788 36.9283 22.7452 36.9282 22.7452 35.632C22.7452 34.3357 22.6335 34.3358 22.6335 33.0396C22.6335 31.7433 23.0061 31.7433 23.0061 30.447C23.0061 29.1508 23.1067 29.1507 23.1067 27.8545C23.1067 26.5582 22.8012 26.5582 22.8012 25.2584C22.8012 23.9585 22.8012 23.9622 22.8012 22.666C22.8012 21.3698 22.8012 21.3697 22.8012 20.0734C22.8012 18.7772 22.6707 18.7736 22.6707 17.4774C22.6707 16.1811 22.8124 16.1775 22.8124 14.8813C22.8208 14.5378 22.9659 14.2107 23.2176 13.9675C23.4693 13.7242 23.8084 13.5833 24.1647 13.5742C24.8577 13.5742 25.1446 14.1596 25.1446 14.8813C25.1446 16.1775 25.2117 16.1775 25.2117 17.4702C25.2117 18.7628 25.2117 18.77 25.2117 20.0662C25.2117 21.3625 25.6401 21.3626 25.6401 22.6588C25.6401 23.955 25.4203 23.955 25.4203 25.2512C25.4203 26.5474 25.5768 26.5475 25.5768 27.8438C25.5768 29.14 25.3868 29.1401 25.3868 30.4363C25.3868 31.7326 25.3421 31.7362 25.3421 33.0324C25.3421 34.3286 25.3086 34.3286 25.3086 35.6285C25.3086 36.9283 25.5731 36.9283 25.5731 38.2245C25.547 38.9463 24.8428 39.2837 24.1498 39.2837Z" fill="white"/>
<path d="M17.7676 22.8921C17.4653 22.8798 17.1763 22.7679 16.9492 22.5751C16.7221 22.3823 16.5704 22.1203 16.5195 21.8328C16.4613 21.5071 16.5346 21.1725 16.7244 20.8974C16.9143 20.6222 17.2062 20.4276 17.5403 20.3535C18.3631 20.1654 19.1393 19.8225 19.8242 19.3445C20.5404 18.8973 21.2027 18.3747 21.7989 17.7862C22.5105 17.0429 22.9985 16.2673 22.9724 15.6318C22.9463 14.9962 23.4679 16.0196 24.1609 15.9908C24.4996 15.9719 24.8327 16.0808 25.0894 16.2947C25.3461 16.5086 25.5061 16.8105 25.5356 17.1363C25.538 17.9777 25.2423 18.7947 24.6973 19.4522C24.2149 20.1445 23.5897 20.7338 22.8606 21.183C22.1115 21.6032 21.3186 21.9461 20.4949 22.2062C19.678 22.4744 18.8375 22.6705 17.9838 22.7916C17.9093 22.8203 17.8459 22.8921 17.7676 22.8921Z" fill="white"/>
<path d="M17.0522 27.3697C16.7572 27.3786 16.4688 27.2836 16.2412 27.1025C16.0136 26.9215 15.8622 26.6667 15.8152 26.3858C15.7923 26.2328 15.8016 26.0769 15.8426 25.9275C15.8836 25.7781 15.9555 25.6382 16.0539 25.5162C16.1524 25.3942 16.2753 25.2926 16.4155 25.2174C16.5556 25.1423 16.7101 25.095 16.8696 25.0787C17.6631 24.9567 18.5424 24.4397 19.4142 23.8832C20.2156 23.3975 20.9568 22.8253 21.6235 22.1776C22.4581 21.3158 22.9201 20.4181 22.894 19.8184C22.8679 19.1505 23.4677 20.6515 24.1607 20.6228C24.4941 20.596 24.825 20.6976 25.0807 20.9056C25.3363 21.1136 25.4959 21.411 25.5244 21.7323C25.542 22.629 25.2065 23.4987 24.5855 24.1667C23.9895 24.839 23.263 25.3927 22.447 25.7969C21.6396 26.2126 20.794 26.5552 19.9209 26.8203C19.046 27.0716 18.1495 27.247 17.2421 27.3445C17.1793 27.3562 17.116 27.3647 17.0522 27.3697Z" fill="white"/>
<path d="M16.3554 32.0237C16.05 32.0403 15.7484 31.9519 15.5042 31.7744C15.26 31.5969 15.089 31.3417 15.0216 31.0541C14.9878 30.7185 15.0881 30.383 15.302 30.1161C15.5159 29.8493 15.8273 29.6711 16.1728 29.6178C16.9915 29.4973 17.7726 29.2043 18.4604 28.7596C19.1318 28.291 19.7555 27.762 20.3232 27.1797C20.918 26.6251 21.4651 26.0246 21.9588 25.3844C22.6071 24.5154 22.8939 23.7255 22.8716 23.2587C22.8418 22.5908 23.4975 25.273 24.1905 25.2443C24.3554 25.2341 24.5208 25.2555 24.6772 25.3071C24.8336 25.3586 24.978 25.4394 25.1019 25.5448C25.2258 25.6502 25.3269 25.7781 25.3994 25.9212C25.4719 26.0644 25.5143 26.22 25.5243 26.379C25.5733 27.1711 25.3364 27.9553 24.8537 28.5981C24.4327 29.1475 23.7359 29.5567 22.9461 30.0092C22.2485 30.3876 21.5165 30.7039 20.7592 30.9537C20.014 31.205 19.3397 31.5102 18.6951 31.6718C17.5066 31.9555 16.6125 32.1242 16.5566 32.1313C16.5007 32.1385 16.3964 32.0237 16.3554 32.0237Z" fill="white"/>
<path d="M30.6587 23.0789C30.5879 23.0789 30.5023 23.1723 30.4315 23.158C30.1558 23.1113 29.1647 22.8167 27.9651 22.4146C27.1397 22.1724 26.3431 21.8476 25.5881 21.4452C24.8478 21.0141 24.2074 20.4409 23.7066 19.7612C23.2062 19.0862 22.9616 18.266 23.0137 17.4379C23.0128 17.2828 23.0451 17.1293 23.1088 16.9868C23.1724 16.8443 23.266 16.7161 23.3836 16.6102C23.5011 16.5043 23.6402 16.423 23.792 16.3714C23.9437 16.3198 24.105 16.299 24.2655 16.3104C24.9585 16.3391 25.5434 15.2547 25.5136 15.9226C25.4838 16.5904 25.8601 17.359 26.5679 18.1166C27.1859 18.69 27.8668 19.1969 28.5985 19.6283C29.2822 20.113 30.0582 20.4633 30.8823 20.6589C31.0417 20.6936 31.1924 20.7583 31.3256 20.8494C31.4589 20.9406 31.5721 21.0562 31.6587 21.1897C31.7453 21.3233 31.8036 21.4722 31.8302 21.6275C31.8568 21.7829 31.8512 21.9419 31.8137 22.0951C31.7799 22.3671 31.6435 22.6175 31.4306 22.7989C31.2176 22.9803 30.9429 23.08 30.6587 23.0789Z" fill="white"/>
<path d="M17.7046 18.6626C17.4063 18.6662 17.1176 18.5608 16.8966 18.3677C16.6756 18.1746 16.5386 17.908 16.5131 17.6215C16.4876 17.335 16.5755 17.0499 16.7592 16.8234C16.9429 16.5969 17.2088 16.4457 17.5034 16.4003C18.239 16.2654 18.9627 16.0757 19.6679 15.833C20.3699 15.5795 21.0388 15.2482 21.6612 14.8455C22.4063 14.3716 22.8981 13.8043 22.872 13.1615C22.8681 13.0026 22.8966 12.8445 22.9561 12.6962C23.0156 12.5479 23.1048 12.4124 23.2186 12.2973C23.3324 12.1823 23.4687 12.09 23.6195 12.0258C23.7704 11.9615 23.9329 11.9266 24.0978 11.9228C24.258 11.9151 24.4182 11.9386 24.5686 11.9923C24.7191 12.0459 24.8567 12.1285 24.973 12.2349C25.0894 12.3414 25.1821 12.4695 25.2455 12.6115C25.309 12.7535 25.3419 12.9065 25.3422 13.0611C25.389 13.8862 25.1389 14.7016 24.6343 15.3698C24.1287 16.0402 23.4858 16.6037 22.7453 17.0252C22.0002 17.4383 21.2123 17.7752 20.3945 18.0305C19.5855 18.3048 18.7576 18.5244 17.9169 18.6877C17.8455 18.6848 17.7745 18.6765 17.7046 18.6626Z" fill="white"/>
<path d="M30.5953 18.964C30.5261 18.9557 30.4576 18.9426 30.3904 18.9246C29.5283 18.861 28.6769 18.7007 27.8533 18.447C27.0479 18.1419 26.2765 17.7593 25.5507 17.3051C24.8072 16.8867 24.1595 16.3272 23.647 15.6605C23.1482 14.9848 22.9037 14.1653 22.954 13.3374C22.9521 13.1816 22.9836 13.0271 23.0465 12.8835C23.1093 12.7399 23.2022 12.6103 23.3193 12.5029C23.4364 12.3954 23.5752 12.3123 23.7271 12.2588C23.879 12.2053 24.0407 12.1826 24.2021 12.192C24.5408 12.1986 24.8633 12.3326 25.1008 12.5655C25.3382 12.7983 25.4716 13.1114 25.4725 13.4379C25.4464 14.0806 25.8675 14.6875 26.6126 15.1615C27.25 15.5416 27.9299 15.8511 28.6393 16.0843C29.3405 16.3407 30.0602 16.5472 30.7928 16.7019C30.9501 16.7187 31.1021 16.7664 31.2395 16.8422C31.3768 16.918 31.4966 17.0202 31.5912 17.1424C31.6859 17.2646 31.7536 17.4042 31.7899 17.5526C31.8262 17.7011 31.8305 17.8552 31.8024 18.0053C31.7557 18.2789 31.6076 18.5267 31.3856 18.703C31.1636 18.8793 30.8828 18.9721 30.5953 18.964Z" fill="white"/>
<path d="M31.3739 27.7612C31.3105 27.7612 31.2472 27.6715 31.1801 27.6608C30.2827 27.5023 29.3966 27.2887 28.5274 27.0215C27.6457 26.7888 26.7898 26.4737 25.9716 26.0807C25.1587 25.672 24.4352 25.116 23.8406 24.4433C23.2395 23.7677 22.9254 22.8982 22.9613 22.0089C22.9681 21.6777 23.1091 21.3624 23.3542 21.1302C23.5993 20.898 23.929 20.7674 24.2727 20.7666C24.9657 20.7953 25.5432 19.4272 25.5171 20.095C25.491 20.6911 26.061 21.5062 26.8956 22.368C27.5357 23.0316 28.2519 23.6231 29.0304 24.1311C29.7892 24.6707 30.6536 25.0566 31.5713 25.2656C31.9019 25.3194 32.1971 25.4965 32.3931 25.7586C32.589 26.0208 32.6699 26.3469 32.6182 26.6661C32.5739 26.9591 32.4258 27.2281 32.199 27.4278C31.9721 27.6274 31.6806 27.7453 31.3739 27.7612Z" fill="white"/>
<path d="M32.0896 32.4648C32.0337 32.4648 31.9629 32.4182 31.9033 32.411C31.8437 32.4038 30.9644 32.1919 29.776 31.9047C29.0631 31.7517 28.3592 31.5623 27.6673 31.3373C26.9152 31.0622 26.1927 30.717 25.5101 30.3067C24.8039 29.941 24.1786 29.4458 23.6695 28.8489C23.1469 28.2356 22.8612 27.4667 22.8611 26.6731C22.8777 26.5129 22.9274 26.3575 23.0073 26.2162C23.0871 26.0748 23.1954 25.9503 23.326 25.8499C23.4565 25.7495 23.6066 25.6753 23.7673 25.6316C23.9281 25.588 24.0962 25.5759 24.2619 25.5959C24.9549 25.621 25.5957 22.4755 25.5659 23.1434C25.5659 23.4845 25.8156 24.3713 26.4266 25.4305C26.8437 26.1558 27.3435 26.834 27.9169 27.4522C28.4595 28.1028 29.0999 28.6716 29.8169 29.1398C30.5652 29.573 31.3964 29.8565 32.261 29.9729C32.4188 29.9922 32.5708 30.0425 32.7077 30.1207C32.8445 30.1989 32.9631 30.3033 33.0564 30.4275C33.1496 30.5517 33.2154 30.693 33.2497 30.8427C33.284 30.9924 33.2861 31.1474 33.2558 31.2979C33.1664 31.9083 32.7081 32.4648 32.0896 32.4648Z" fill="white"/>
<path d="M16.2739 36.3325C15.9711 36.313 15.6855 36.1897 15.4689 35.9849C15.2522 35.78 15.1189 35.5071 15.0928 35.2157C15.0665 35.0678 15.0724 34.9163 15.1103 34.7707C15.1482 34.6252 15.2173 34.489 15.3131 34.3706C15.4088 34.2523 15.5291 34.1547 15.6663 34.0838C15.8036 34.0129 15.9547 33.9703 16.1099 33.959C16.9318 33.7857 17.7063 33.4467 18.3826 32.9643C19.0352 32.4765 19.6389 31.9309 20.1858 31.3343C20.7811 30.788 21.3293 30.1959 21.8251 29.564C22.4733 28.6915 22.8012 27.9302 22.7789 27.4634C22.7491 26.7956 23.4048 29.5245 24.0978 29.4993C24.2589 29.4836 24.4218 29.4991 24.5766 29.5451C24.7314 29.5911 24.8751 29.6666 24.9991 29.7671C25.1231 29.8675 25.225 29.9909 25.2986 30.13C25.3723 30.2691 25.4162 30.4208 25.4279 30.5766C25.4858 31.3702 25.2553 32.1586 24.7759 32.8064C24.2643 33.4246 23.6313 33.9396 22.913 34.3217C22.1985 34.6921 21.4502 34.9985 20.6776 35.2373C19.98 35.4466 19.271 35.6192 18.5539 35.7543C17.3617 36.038 16.475 36.1709 16.4191 36.1781C16.3632 36.1853 16.3297 36.3325 16.2739 36.3325Z" fill="white"/>
<path d="M32.0257 36.6159C31.9661 36.6159 31.914 36.4758 31.8543 36.4686C31.122 36.4537 30.3935 36.361 29.6822 36.1921C29.0414 36.0377 28.3596 35.6967 27.6294 35.4417C26.8524 35.2295 26.0957 34.9531 25.3679 34.6158C24.6876 34.1947 24.1044 33.6436 23.6541 32.9964C23.1226 32.3947 22.8272 31.6322 22.8196 30.842C22.8454 30.512 23.0048 30.205 23.2634 29.9873C23.522 29.7696 23.8591 29.6588 24.2018 29.6785C24.8948 29.7073 25.4387 26.6445 25.4089 27.3123C25.5178 28.1433 25.8114 28.9418 26.2696 29.6535C26.6714 30.3979 27.1588 31.0965 27.7225 31.736C28.3197 32.3491 29.0062 32.8753 29.7605 33.298C30.5148 33.7102 31.3471 33.9726 32.2083 34.07C32.5525 34.1241 32.8623 34.303 33.0742 34.57C33.2861 34.837 33.3842 35.1719 33.3483 35.5063C33.2912 35.8084 33.1291 36.0827 32.8887 36.2844C32.6484 36.486 32.3441 36.603 32.0257 36.6159Z" fill="white"/>
<path d="M29.0859 44.8532C27.7037 44.8532 27.7037 44.8066 26.3178 44.8066C24.9318 44.8066 24.9319 44.943 23.5496 44.943H20.7778C19.3918 44.943 19.3917 44.882 18.0095 44.882C16.6273 44.882 16.6236 44.8136 15.2376 44.8136C13.8517 44.8136 13.8517 44.9142 12.4658 44.9142C11.0798 44.9142 11.0798 44.8639 9.69387 44.8639C9.41434 44.8727 9.14235 44.7752 8.93673 44.5925C8.73111 44.4098 8.60827 44.1566 8.59473 43.8873C8.60237 43.6097 8.72103 43.3456 8.92582 43.1503C9.1306 42.9549 9.40577 42.8433 9.69387 42.8387C11.0761 42.8387 11.0761 42.8603 12.462 42.8675C13.848 42.8747 13.8442 42.7921 15.2264 42.7993C16.6087 42.8065 16.6086 42.8532 17.9946 42.8568C19.3805 42.8604 19.3769 42.9213 20.7591 42.9285C22.1413 42.9357 22.145 43.0076 23.5273 43.0147C24.9095 43.0219 24.9132 42.9681 26.2954 42.9753C27.6776 42.9825 27.6814 43.0255 29.0636 43.0291C29.6449 43.0291 30.0919 43.3272 30.0919 43.8873C30.095 44.0153 30.071 44.1426 30.0215 44.2613C29.972 44.3801 29.898 44.4878 29.8039 44.5781C29.7098 44.6685 29.5976 44.7395 29.4742 44.7868C29.3508 44.8341 29.2187 44.8567 29.0859 44.8532Z" fill="white"/>
<path d="M36.3221 49.7617C35.0777 49.7617 35.0777 49.6288 33.8296 49.6288C32.5815 49.6288 32.5815 49.6648 31.3371 49.6648C30.0927 49.6648 30.089 49.697 28.8446 49.697C27.6003 49.697 27.5966 49.7258 26.3485 49.7258C25.1004 49.7258 25.1004 49.7007 23.8523 49.7007C22.6042 49.7007 22.6041 49.6576 21.356 49.6576C21.0782 49.6673 20.8077 49.5709 20.6032 49.3893C20.3988 49.2078 20.277 48.9557 20.2644 48.688C20.271 48.411 20.3882 48.1472 20.5915 47.9513C20.7948 47.7554 21.0686 47.6425 21.356 47.6361C22.6041 47.6361 22.6042 47.6971 23.8523 47.6971C25.1004 47.6971 25.0966 47.6396 26.3447 47.6396C27.5928 47.6396 27.5891 47.6792 28.8372 47.6792C30.0853 47.6792 30.0815 47.7653 31.3296 47.7653C32.5777 47.7653 32.5777 47.5964 33.8258 47.5964C35.0739 47.5964 35.074 47.715 36.3221 47.715C36.4531 47.7127 36.5832 47.7367 36.7041 47.7854C36.825 47.8342 36.9341 47.9066 37.0245 47.9981C37.1149 48.0896 37.1845 48.1981 37.2291 48.3169C37.2736 48.4356 37.2921 48.562 37.2833 48.688C37.2934 48.8194 37.2766 48.9515 37.2338 49.0765C37.191 49.2016 37.123 49.3173 37.0337 49.417C36.9444 49.5168 36.8356 49.5984 36.7135 49.6576C36.5914 49.7167 36.4584 49.7522 36.3221 49.7617Z" fill="white"/>
<path d="M26.8847 54.5083C25.3944 54.5083 25.3944 54.5083 23.9265 54.5083C22.4586 54.5083 22.4362 54.5264 20.9683 54.5264C19.5003 54.5264 19.478 54.4582 17.9877 54.4582C16.4974 54.4582 16.4975 54.4223 15.0295 54.4223C14.8965 54.4302 14.7632 54.4119 14.6379 54.3683C14.5125 54.3247 14.3978 54.2567 14.3007 54.1687C14.2036 54.0808 14.1263 53.9745 14.0734 53.8567C14.0205 53.7388 13.9932 53.6116 13.9932 53.4832C13.9932 53.3548 14.0205 53.2278 14.0734 53.1099C14.1263 52.992 14.2036 52.8858 14.3007 52.7979C14.3978 52.7099 14.5125 52.6419 14.6379 52.5983C14.7632 52.5547 14.8965 52.5364 15.0295 52.5443C16.5198 52.5443 16.5198 52.4402 17.9877 52.4402C19.4556 52.4402 19.4781 52.4724 20.946 52.4724C22.4139 52.4724 22.4362 52.4724 23.9041 52.4724C25.372 52.4724 25.3944 52.494 26.8847 52.494C27.0206 52.493 27.1554 52.5183 27.2811 52.5682C27.4068 52.6181 27.5209 52.6917 27.6167 52.7847C27.7125 52.8777 27.788 52.9881 27.8389 53.1096C27.8898 53.2311 27.915 53.3613 27.913 53.4923C27.9154 53.6243 27.8907 53.7553 27.8402 53.878C27.7897 54.0008 27.7145 54.1126 27.6189 54.2071C27.5233 54.3016 27.4091 54.377 27.2831 54.4287C27.157 54.4805 27.0216 54.5074 26.8847 54.5083Z" fill="white"/>
<path d="M30.9722 59.3415C29.6458 59.3415 29.6459 59.3234 28.3233 59.3234C27.0007 59.3234 26.9969 59.2659 25.6743 59.2659C24.3517 59.2659 24.3516 59.3629 23.0253 59.3629C21.6989 59.3629 21.699 59.3378 20.3726 59.3378C19.0463 59.3378 19.05 59.2912 17.7237 59.2912C17.5889 59.2931 17.4552 59.2688 17.3303 59.2198C17.2055 59.1708 17.0922 59.0981 16.9973 59.0059C16.9023 58.9137 16.8276 58.804 16.7777 58.6833C16.7277 58.5627 16.7035 58.4336 16.7066 58.3037C16.7043 58.1761 16.7294 58.0493 16.7802 57.9313C16.831 57.8134 16.9065 57.7068 17.0019 57.6182C17.0973 57.5296 17.2106 57.4609 17.3348 57.4164C17.459 57.3719 17.5913 57.3525 17.7237 57.3594C19.0463 57.3594 19.0463 57.3091 20.3726 57.3091H23.0178C24.3442 57.3091 24.3442 57.3091 25.6668 57.3091C26.9894 57.3091 26.9932 57.2588 28.3195 57.2588C29.6459 57.2588 29.6458 57.3379 30.9722 57.3379C31.1064 57.3325 31.2402 57.3534 31.3658 57.3994C31.4913 57.4454 31.6058 57.5158 31.7023 57.6058C31.7988 57.6958 31.8753 57.8037 31.9272 57.9231C31.9791 58.0425 32.0053 58.1706 32.0042 58.3001C32.0092 58.5697 31.9036 58.8304 31.7104 59.0254C31.5172 59.2204 31.2518 59.334 30.9722 59.3415Z" fill="white"/>
<path d="M38.9965 44.8996C37.8788 44.8996 37.8788 44.8494 36.7611 44.8458C35.6434 44.8422 35.6434 44.914 34.5257 44.9068C33.408 44.8996 33.408 44.799 32.2903 44.7954C32.1558 44.8057 32.0206 44.7899 31.8926 44.749C31.7646 44.708 31.6464 44.6429 31.545 44.5572C31.4436 44.4715 31.361 44.3671 31.3022 44.2502C31.2433 44.1332 31.2094 44.006 31.2024 43.8762C31.2067 43.7437 31.2381 43.6132 31.2947 43.4924C31.3514 43.3716 31.4322 43.2628 31.5326 43.1721C31.6329 43.0814 31.7508 43.0106 31.8795 42.9638C32.0082 42.917 32.1453 42.8953 32.2828 42.8996C33.4005 42.8996 33.4005 42.8493 34.5182 42.8493C35.6359 42.8493 35.6359 42.8206 36.7536 42.8206C37.8713 42.8206 37.8713 42.8456 38.989 42.8456C39.2716 42.8456 39.5426 42.9539 39.7424 43.1465C39.9423 43.3391 40.0546 43.6003 40.0546 43.8727C40.0546 44.1451 39.9423 44.4061 39.7424 44.5987C39.5426 44.7913 39.2716 44.8996 38.989 44.8996H38.9965Z" fill="white"/>
<path d="M18.5095 49.7254C16.9745 49.7254 16.9745 49.6967 15.4396 49.6967C13.9046 49.6967 13.9046 49.7363 12.3696 49.7363C12.0886 49.7269 11.8225 49.6119 11.6283 49.416C11.4341 49.22 11.3271 48.9586 11.3301 48.6876C11.3292 48.5551 11.3553 48.4238 11.407 48.301C11.4587 48.1783 11.535 48.0665 11.6315 47.9721C11.728 47.8778 11.8428 47.8026 11.9695 47.751C12.0961 47.6995 12.2321 47.6726 12.3696 47.6716C13.9046 47.6716 13.9046 47.6536 15.4396 47.6536C16.9745 47.6536 16.9745 47.6536 18.5095 47.6536C18.6452 47.6563 18.7789 47.6851 18.9029 47.7382C19.0269 47.7914 19.1387 47.8679 19.2316 47.9632C19.3246 48.0585 19.397 48.1708 19.4444 48.2933C19.4918 48.4159 19.5135 48.5463 19.508 48.6769C19.5155 48.8093 19.4955 48.9419 19.4491 49.0667C19.4027 49.1915 19.3309 49.3062 19.2378 49.4039C19.1448 49.5015 19.0325 49.5802 18.9074 49.6355C18.7823 49.6907 18.647 49.7213 18.5095 49.7254Z" fill="white"/>
<path d="M33.4421 54.4975C31.9518 54.4975 31.9518 54.519 30.4616 54.519C30.179 54.519 29.9079 54.4108 29.7081 54.2182C29.5082 54.0256 29.396 53.7645 29.396 53.4922C29.396 53.2198 29.5082 52.9585 29.7081 52.7659C29.9079 52.5734 30.179 52.4651 30.4616 52.4651C31.9518 52.4651 31.9518 52.4651 33.4421 52.4651C33.5789 52.4674 33.7139 52.4958 33.8393 52.5485C33.9648 52.6013 34.0782 52.6774 34.1731 52.7724C34.2679 52.8675 34.3423 52.9797 34.3921 53.1026C34.4418 53.2254 34.4659 53.3566 34.4629 53.4885C34.4664 53.6198 34.4426 53.7505 34.3928 53.8728C34.3431 53.9951 34.2685 54.1064 34.1733 54.2005C34.0782 54.2945 33.9645 54.3693 33.8389 54.4203C33.7133 54.4713 33.5784 54.4975 33.4421 54.4975Z" fill="white"/>
<path d="M158.501 49.2555C159.72 49.2555 161.053 49.2305 162.387 49.2808C162.53 49.3104 162.664 49.3711 162.779 49.4582C162.894 49.5453 162.987 49.6565 163.05 49.7834C163.795 51.4351 164.466 53.1047 165.073 54.5374C165.64 53.1586 166.325 51.5392 166.973 49.9054C167.156 49.4494 167.376 49.2196 167.935 49.2411C169.209 49.2878 170.487 49.2411 171.701 49.2411C171.364 53.3509 171.364 57.4799 171.701 61.5896H167.864V55.0043C167.23 56.4406 166.598 57.8769 165.967 59.3132C165.892 59.5644 165.784 59.8057 165.647 60.0313C165.453 60.2755 165.185 60.6237 164.943 60.6309C164.701 60.6381 164.354 60.3114 164.235 60.0529C163.553 58.5915 162.931 57.1049 162.286 55.6255C162.186 55.3921 162.07 55.1622 161.981 54.9719V61.6219H158.527C158.825 57.5044 158.816 53.3718 158.501 49.2555Z" fill="white"/>
<path d="M204.26 49.2885H207.915V61.6404C206.961 61.6404 205.844 61.6727 204.73 61.6117C204.506 61.6117 204.23 61.2527 204.096 61.0193C203.012 59.048 201.958 57.0694 200.87 55.0443V61.608H197.245C197.515 57.4948 197.515 53.3693 197.245 49.256C198.243 49.256 199.398 49.2201 200.553 49.2848C200.71 49.3265 200.857 49.3981 200.985 49.4955C201.113 49.593 201.22 49.7143 201.298 49.8521C202.289 51.4069 203.239 52.9869 204.256 54.653L204.26 49.2885Z" fill="white"/>
<path d="M146.244 55.4563C146.244 54.2822 146.322 53.1008 146.226 51.9338C146.11 50.5801 147.548 49.1224 149.016 49.2301C150.47 49.3432 151.932 49.3432 153.386 49.2301C154.958 49.0972 156.367 50.5586 156.281 52.002C156.166 54.3468 156.184 56.7024 156.281 59.0507C156.333 60.3649 154.906 61.7509 153.587 61.6684C152.074 61.5624 150.555 61.5624 149.042 61.6684C147.552 61.7797 146.132 60.3254 146.233 58.9825C146.311 57.8263 146.244 56.6341 146.244 55.4563ZM152.95 55.5245C152.95 54.8962 152.95 54.2678 152.95 53.6394C152.92 52.7058 152.391 52.2606 151.33 52.2534C150.16 52.2534 149.575 52.6449 149.549 53.5749C149.515 54.828 149.515 56.0883 149.549 57.3415C149.579 58.2714 150.164 58.6629 151.341 58.6485C152.362 58.6485 152.902 58.1997 152.943 57.3236C152.976 56.7239 152.954 56.1242 152.954 55.5245H152.95Z" fill="white"/>
<path d="M186.69 49.2861H193.202C192.871 52.1228 194.063 54.7153 194.529 57.4083C194.775 58.8195 195.248 60.1948 195.624 61.5952H191.5C191.824 60.6221 192.148 59.3725 191.258 58.8662C190.665 58.5323 189.316 58.9416 188.624 59.4336C188.184 59.7459 188.325 60.8194 188.199 61.6094H184.101C185.323 59.6919 185.438 57.5411 185.863 55.5052C186.288 53.4692 187.271 51.516 186.69 49.2861ZM190.095 52.4783L189.868 52.4496L189.004 56.3922C189.428 56.3562 189.656 56.3419 189.879 56.3168C190.624 56.2414 190.96 55.9397 190.706 55.1426C190.434 54.2629 190.293 53.3616 190.095 52.4783Z" fill="white"/>
<path d="M74.2939 49.2566H78.0569C77.4608 51.9317 77.8557 54.5852 77.7812 57.2243C77.7477 58.3913 78.0457 58.6606 79.2379 58.6606C80.4301 58.6606 80.7282 58.4201 80.7282 57.2747C80.7282 55.271 80.7505 53.2638 80.7282 51.2602C80.6749 50.6028 80.5791 49.9491 80.4413 49.3032H84.2974C83.7162 52.5349 84.0925 55.7271 84.0738 58.9192C84.0738 60.3232 82.7773 61.7918 81.2423 61.6769C79.9383 61.5674 78.6269 61.5674 77.3229 61.6769C75.732 61.817 74.3945 60.28 74.4579 58.9515C74.551 56.9191 74.5026 54.8832 74.4579 52.8473C74.4541 51.6803 74.3573 50.5205 74.2939 49.2566Z" fill="white"/>
<path d="M177.454 61.6147H173.765C174.008 57.5118 174.022 53.3994 173.806 49.2951C173.844 49.2951 174.093 49.2592 174.339 49.2592C176.575 49.2592 178.81 49.331 181.027 49.2304C182.435 49.1658 183.903 50.559 183.769 51.8768C183.676 52.814 183.888 53.805 183.661 54.6991C183.288 56.1677 181.895 56.6883 180.576 57.1444C179.786 57.3969 178.976 57.5878 178.154 57.7152C177.491 57.8337 177.152 58.1247 177.223 58.8105C177.305 59.7118 177.372 60.6165 177.454 61.6147ZM177.197 53.5033C177.197 55.3382 177.197 55.3381 178.855 54.8821C179.909 54.5913 180.345 53.9342 180.166 52.9826C179.987 52.128 179.246 51.7906 177.867 51.945C176.779 52.0671 177.342 52.893 177.197 53.4173C177.192 53.4506 177.192 53.4844 177.197 53.5177V53.5033Z" fill="white"/>
<path d="M102.419 61.6435H98.7231C98.9877 57.5313 98.9877 53.4074 98.7231 49.2952C98.8014 49.2952 99.0509 49.2592 99.3006 49.2556C101.499 49.2556 103.704 49.3381 105.895 49.2268C107.385 49.1478 108.939 50.5519 108.753 52.0349C108.641 52.9361 108.846 53.8985 108.607 54.7566C108.201 56.218 106.8 56.7135 105.481 57.1588C104.659 57.4061 103.822 57.6026 102.974 57.7475C102.426 57.8589 102.136 58.1067 102.188 58.692C102.262 59.6507 102.33 60.6094 102.419 61.6435ZM103.388 51.9486C102.166 51.9486 102.166 51.9487 102.166 53.1408V53.7368C102.166 55.331 102.166 55.331 103.786 54.8965C104.796 54.6272 105.277 53.9989 105.139 53.1012C105.027 52.2717 104.513 51.9414 103.38 51.9414L103.388 51.9486Z" fill="white"/>
<path d="M90.4962 61.6044H86.7705C87.0314 57.4921 87.0314 53.3682 86.7705 49.2559H88.4396C89.6579 49.2559 90.8799 49.3062 92.0945 49.2559C96.2114 49.0548 96.9751 49.9238 96.7516 53.809C96.7458 54.2325 96.6677 54.6522 96.5206 55.0514C95.9729 56.3117 94.736 56.7498 93.54 57.1591C92.6852 57.4173 91.8141 57.6224 90.9321 57.7731C90.8195 57.7787 90.7095 57.8071 90.6092 57.8566C90.5088 57.9061 90.4205 57.9757 90.3501 58.0605C90.2797 58.1453 90.2288 58.2435 90.2007 58.3487C90.1725 58.4539 90.1678 58.5638 90.1869 58.6708C90.3285 59.6224 90.3956 60.581 90.4962 61.6044ZM91.45 51.9417C90.2578 51.9417 90.2429 51.9419 90.2391 53.0658V53.748C90.2391 55.2992 90.2391 55.2991 91.8002 54.9078C92.8843 54.6349 93.3612 54.0244 93.2197 53.0765C93.1042 52.2686 92.5788 51.9417 91.4313 51.9417H91.45Z" fill="white"/>
<path d="M63.7947 61.6378L63.3439 58.3057C64.4952 58.4313 65.516 58.5965 66.5442 58.6181C66.9733 58.5842 67.3729 58.3942 67.662 58.0867C68.1537 57.566 67.9973 57.1063 67.3304 56.8119C66.4698 56.4277 65.5905 56.0937 64.7224 55.6843C64.258 55.4849 63.8704 55.1498 63.6144 54.7265C63.3583 54.3032 63.2468 53.8131 63.2955 53.3253C63.329 52.3127 62.9863 51.196 63.791 50.3558C64.2418 49.8854 64.9087 49.354 65.5085 49.3073C67.3341 49.1709 69.1821 49.2607 71.0635 49.2607L71.5181 52.2193C70.4004 52.1044 69.4242 51.9788 68.4332 51.9178C68.1101 51.9035 67.7903 51.985 67.5167 52.1511C66.7716 52.6359 66.8423 53.2607 67.6657 53.6162C68.4891 53.9717 69.2491 54.2624 70.0278 54.6215C70.5396 54.8264 70.968 55.1865 71.2484 55.6472C71.5287 56.1079 71.6456 56.6442 71.5814 57.1746C71.5069 58.3201 71.954 59.5767 71.0598 60.5677C70.6574 61.0166 70.0575 61.5517 69.5136 61.5876C67.6396 61.7133 65.7395 61.6378 63.7947 61.6378Z" fill="white"/>
<path d="M144.217 52.5814C142.917 52.4629 141.744 52.312 140.57 52.2653C139.501 52.2258 139.001 52.7465 138.99 53.7878C138.99 54.9081 138.99 56.0249 138.99 57.1452C138.99 58.1721 139.512 58.6784 140.603 58.6353C141.773 58.5886 142.939 58.4378 144.214 58.3193C144.061 59.3965 143.908 60.4737 143.744 61.6264C141.714 61.6264 139.702 61.709 137.697 61.5941C136.606 61.5331 135.704 60.2798 135.697 59.1739C135.697 56.6795 135.697 54.1852 135.697 51.6909C135.697 50.5634 136.714 49.3282 137.82 49.2851C139.776 49.2097 141.736 49.2635 143.737 49.2635C143.904 50.3982 144.057 51.4683 144.217 52.5814Z" fill="white"/>
<path d="M125.112 61.6058H120.76C120.865 60.9523 120.988 60.3383 121.062 59.7207C121.311 57.7764 120.858 55.8088 119.78 54.1479C119.289 53.3687 118.972 52.489 118.525 51.6775C118.078 50.866 117.586 50.1191 117.098 49.322H121.725C121.055 50.9953 122.612 52.0724 122.97 53.523C123.342 52.0868 124.877 51.0095 124.184 49.304H128.703C127.463 51.6307 125.987 53.9325 125.019 56.4137C124.512 57.7063 124.881 59.3256 124.885 60.7942C124.927 61.0724 125.003 61.3449 125.112 61.6058Z" fill="white"/>
<path d="M217.233 61.6233H213.03C213.079 60.187 213.153 58.7902 213.161 57.3826C213.153 56.9587 213.051 56.5414 212.863 56.1583C212.252 54.8513 211.61 53.5586 210.937 52.2803C210.404 51.2749 209.819 50.2983 209.249 49.3144H213.839C213.168 51.0021 214.759 52.0685 215.068 53.5335C215.463 52.0972 216.961 51.02 216.324 49.3H220.817C219.576 51.6304 218.101 53.932 217.129 56.4168C216.626 57.713 216.998 59.3288 216.998 60.801C217.041 61.0834 217.12 61.3596 217.233 61.6233Z" fill="white"/>
<path d="M110.615 49.304H114.195C114.173 52.2304 114.158 55.1103 114.128 57.99C114.128 58.4712 114.34 58.6829 114.829 58.647C115.652 58.5859 116.479 58.5285 117.302 58.4424C117.736 58.3735 118.167 58.2836 118.591 58.1731C118.413 59.4011 118.252 60.489 118.088 61.6093H110.637C110.95 57.5128 110.943 53.3994 110.615 49.304Z" fill="white"/>
</svg>
