<svg width="38" height="38" viewBox="0 0 38 38" fill="none" xmlns="http://www.w3.org/2000/svg">
<path d="M35.625 7.125H10.6875L9.5 1.9C9.2625 0.7125 8.3125 0 7.125 0H0V4.75H5.225L9.5 24.225C9.7375 25.4125 10.6875 26.125 11.875 26.125H30.875C31.825 26.125 32.775 25.4125 33.0125 24.4625L37.7625 10.2125C38.2375 9.025 37.525 7.125 35.625 7.125Z" fill="white"/>
<path d="M11.875 38C14.4984 38 16.625 35.8734 16.625 33.25C16.625 30.6266 14.4984 28.5 11.875 28.5C9.25165 28.5 7.125 30.6266 7.125 33.25C7.125 35.8734 9.25165 38 11.875 38Z" fill="white"/>
<path d="M30.875 38C33.4984 38 35.625 35.8734 35.625 33.25C35.625 30.6266 33.4984 28.5 30.875 28.5C28.2516 28.5 26.125 30.6266 26.125 33.25C26.125 35.8734 28.2516 38 30.875 38Z" fill="white"/>
</svg>
